<?xml version="1.0" encoding="utf-8"?>
<!DOCTYPE svg PUBLIC "-//W3C//DTD SVG 20010904//EN" "http://www.w3.org/TR/2001/REC-SVG-20010904/DTD/svg10.dtd">
<svg version="1.0" xmlns="http://www.w3.org/2000/svg" width="96pt" height="96pt" viewBox="0 0 96 96" style="" preserveAspectRatio="xMidYMid meet">
<g fill="#000000FF" stroke="#000000FF">
<path d="M 41.650 12.020 C 31.449 13.792 20.877 21.255 15.436 30.525 C 5.501 47.452 10.773 70.005 27.234 80.997 C 30.531 83.199 33.794 85.000 34.485 85.000 C 35.235 85.000 36.004 83.026 36.391 80.110 C 36.748 77.421 38.142 73.596 39.489 71.611 L 41.939 68.001 38.637 66.622 C 33.360 64.417 31.000 60.614 31.000 54.315 C 31.000 48.883 32.926 43.525 35.145 42.785 C 35.942 42.519 36.257 40.068 36.104 35.329 C 35.926 29.850 36.248 27.895 37.543 26.600 C 40.383 23.760 42.000 26.309 42.000 33.622 L 42.000 40.000 48.500 40.000 L 55.000 40.000 55.000 34.071 C 55.000 29.961 55.493 27.650 56.606 26.537 C 59.444 23.699 61.000 26.369 61.000 34.078 C 61.000 39.718 61.437 41.555 63.500 44.595 C 65.475 47.505 66.000 49.531 66.000 54.240 C 66.000 59.685 65.706 60.494 62.600 63.600 C 60.730 65.470 58.255 67.000 57.100 67.000 C 54.577 67.000 54.398 68.256 56.655 70.128 C 58.989 72.063 61.000 77.312 61.000 81.468 C 61.000 85.807 62.165 85.922 68.054 82.162 C 81.520 73.566 88.319 59.115 85.952 44.121 C 84.626 35.721 81.760 29.751 76.190 23.783 C 67.114 14.058 54.551 9.780 41.650 12.020 "/></g>
</svg>
